<?xml version="1.0" encoding="UTF-8"?>
<svg xmlns="http://www.w3.org/2000/svg" version="1.1" viewBox="0 0 1920 411">
  <defs>
    <style>
      .cls-1, .cls-2 {
        fill: #264fda;
      }

      .cls-2 {
        fill-rule: evenodd;
      }

      .cls-3 {
        fill: #fff;
      }

      .cls-4 {
        fill: #7f7f7f;
      }
    </style>
  </defs>
  <!-- Generator: Adobe Illustrator 28.6.0, SVG Export Plug-In . SVG Version: 1.2.0 Build 709)  -->
  <g>
    <g id="Layer_1">
      <g>
        <path class="cls-1" d="M715.8,139.8c0-14.2,2.8-26.7,8.5-37.3,5.7-10.8,13.4-19.2,23.2-25.1,10-5.9,21-8.9,33.2-8.9s22.4,2.6,31.2,7.9c8.8,5.2,15.4,11.9,19.7,19.8v-25.4h23v139.2h-23v-25.9c-4.5,8.1-11.2,14.9-20.2,20.3-8.8,5.2-19.1,7.9-30.9,7.9s-23.1-3-32.9-9.1-17.6-14.6-23.2-25.7c-5.7-11-8.5-23.5-8.5-37.6h0ZM831.6,140c0-10.5-2.1-19.6-6.2-27.4-4.2-7.8-9.8-13.7-17-17.8-7-4.2-14.7-6.3-23.2-6.3s-16.2,2-23.2,6.1-12.6,10-16.7,17.8c-4.2,7.8-6.2,16.9-6.2,27.4s2.1,20,6.2,27.9c4.2,7.8,9.7,13.8,16.7,18,7,4.1,14.7,6.1,23.2,6.1s16.2-2,23.2-6.1c7.2-4.2,12.8-10.2,17-18,4.2-8,6.2-17.2,6.2-27.7h0Z"/>
        <path class="cls-1" d="M952.6,212.2c-12.8,0-24.5-3-34.9-8.9-10.3-5.9-18.5-14.3-24.5-25.1-5.8-11-8.7-23.7-8.7-38.1s3-26.8,9-37.6c6.2-11,14.5-19.4,25-25.1,10.5-5.9,22.2-8.9,35.2-8.9s24.7,3,35.2,8.9c10.5,5.8,18.7,14.1,24.7,24.9,6.2,10.8,9.2,23.5,9.2,37.8s-3.2,27.1-9.5,38.1c-6.1,10.8-14.6,19.2-25.2,25.1s-22.5,8.9-35.4,8.9h0ZM952.6,191.9c8.2,0,15.8-1.9,23-5.8,7.2-3.9,12.9-9.7,17.2-17.5,4.5-7.8,6.7-17.3,6.7-28.4s-2.2-20.7-6.5-28.4-10-13.5-17-17.3c-7-3.9-14.6-5.8-22.7-5.8s-16,1.9-23,5.8c-6.8,3.7-12.3,9.5-16.5,17.3s-6.2,17.3-6.2,28.4,2,20.9,6,28.7c4.2,7.8,9.7,13.6,16.5,17.5,6.8,3.7,14.3,5.6,22.5,5.6h0Z"/>
        <path class="cls-1" d="M1119.2,68.2c16.6,0,30.1,5.2,40.4,15.5,10.3,10.2,15.5,24.9,15.5,44.2v82h-22.5v-78.7c0-13.9-3.4-24.5-10.2-31.7-6.8-7.5-16.1-11.2-27.9-11.2s-21.6,3.8-28.7,11.4c-7,7.6-10.5,18.7-10.5,33.3v77h-22.7V70.7h22.7v19.8c4.5-7.1,10.6-12.6,18.2-16.5,7.8-3.9,16.4-5.8,25.7-5.8Z"/>
        <path class="cls-1" d="M1267.9,89.8h-28.7v120.1h-22.7v-120.1h-17.7v-19h17.7v-9.9c0-15.6,3.9-26.9,11.7-34,8-7.3,20.7-10.9,38.2-10.9v19.3c-10,0-17.1,2-21.2,6.1-4,3.9-6,10.4-6,19.6v9.9h28.7v19h0Z"/>
        <path class="cls-1" d="M1317.1,21.9v188h-22.7V21.9h22.7Z"/>
        <path class="cls-1" d="M1415.4,212.2c-12.8,0-24.5-3-34.9-8.9-10.3-5.9-18.5-14.3-24.5-25.1-5.8-11-8.7-23.7-8.7-38.1s3-26.8,9-37.6c6.2-11,14.5-19.4,25-25.1,10.5-5.9,22.2-8.9,35.2-8.9s24.7,3,35.2,8.9c10.5,5.8,18.7,14.1,24.7,24.9,6.2,10.8,9.2,23.5,9.2,37.8s-3.2,27.1-9.5,38.1c-6.2,10.8-14.6,19.2-25.2,25.1-10.6,5.9-22.5,8.9-35.4,8.9h0ZM1415.4,191.9c8.2,0,15.8-1.9,23-5.8,7.2-3.9,12.9-9.7,17.2-17.5,4.5-7.8,6.7-17.3,6.7-28.4s-2.2-20.7-6.5-28.4c-4.3-7.8-10-13.5-17-17.3-7-3.9-14.6-5.8-22.7-5.8s-16,1.9-23,5.8c-6.8,3.7-12.3,9.5-16.5,17.3s-6.2,17.3-6.2,28.4,2,20.9,6,28.7c4.2,7.8,9.7,13.6,16.5,17.5,6.8,3.7,14.3,5.6,22.5,5.6h0Z"/>
        <path class="cls-1" d="M1697.6,70.7l-42.7,139.2h-23.5l-32.9-110.5-33,110.5h-23.5l-42.9-139.2h23.2l31.4,116.8,33.9-116.8h23.2l33.2,117.1,31-117.1h22.6Z"/>
        <path class="cls-1" d="M1727.4,211.4c-4.3,0-8-1.5-11-4.6-3-3-4.5-6.8-4.5-11.2s1.5-8.1,4.5-11.2c3-3,6.6-4.6,11-4.6s7.7,1.5,10.5,4.6c3,3,4.5,6.8,4.5,11.2s-1.5,8.1-4.5,11.2c-2.8,3-6.3,4.6-10.5,4.6Z"/>
        <path class="cls-4" d="M744,364.8c-4.4,0-8.3-.7-11.8-2.2s-6.2-3.6-8.2-6.2c-2-2.7-3.1-5.8-3.3-9.3h9.8c.3,2.8,1.6,5.2,4,7s5.6,2.7,9.5,2.7,6.4-.8,8.5-2.4,3.1-3.6,3.1-6-1.1-4.3-3.3-5.5-5.6-2.5-10.3-3.6c-4.2-1.1-7.7-2.2-10.4-3.3-2.6-1.2-4.9-2.9-6.9-5.1-1.9-2.3-2.8-5.3-2.8-8.9s.9-5.6,2.6-8c1.7-2.4,4.2-4.3,7.4-5.7,3.2-1.5,6.8-2.2,10.9-2.2,6.3,0,11.4,1.6,15.3,4.8,3.9,3.2,6,7.6,6.2,13.1h-9.5c-.2-3-1.4-5.4-3.6-7.2-2.1-1.8-5.1-2.7-8.7-2.7s-6.1.7-8.1,2.2-3,3.4-3,5.7.6,3.4,1.8,4.7c1.2,1.2,2.8,2.1,4.6,2.9,1.9.7,4.4,1.5,7.7,2.4,4.1,1.1,7.4,2.2,10,3.3,2.6,1,4.7,2.6,6.6,4.8,1.9,2.1,2.8,5,2.9,8.4,0,3.1-.9,5.9-2.6,8.4-1.7,2.5-4.2,4.5-7.4,5.9-3.1,1.4-6.7,2.1-10.8,2.1h-.2Z"/>
        <path class="cls-4" d="M783,297.7c-1.8,0-3.3-.6-4.6-1.9s-1.9-2.8-1.9-4.6.6-3.3,1.9-4.6c1.2-1.2,2.8-1.9,4.6-1.9s3.2.6,4.4,1.9c1.2,1.2,1.9,2.8,1.9,4.6s-.6,3.3-1.9,4.6c-1.2,1.2-2.6,1.9-4.4,1.9ZM787.6,306.9v57h-9.5v-57h9.5Z"/>
        <path class="cls-4" d="M872.3,305.9c4.4,0,8.4.9,11.9,2.8,3.5,1.8,6.2,4.5,8.2,8.2s3,8.1,3,13.4v33.6h-9.4v-32.2c0-5.7-1.4-10-4.3-13-2.8-3.1-6.6-4.6-11.3-4.6s-8.8,1.6-11.8,4.8c-2.9,3.1-4.4,7.7-4.4,13.6v31.4h-9.4v-32.2c0-5.7-1.4-10-4.3-13-2.8-3.1-6.6-4.6-11.3-4.6s-8.8,1.6-11.8,4.8c-2.9,3.1-4.4,7.7-4.4,13.6v31.4h-9.5v-57h9.5v8.2c1.9-3,4.4-5.3,7.5-6.9,3.2-1.6,6.7-2.4,10.5-2.4s9,1.1,12.7,3.2,6.4,5.3,8.2,9.5c1.6-4,4.2-7.1,7.9-9.4,3.7-2.2,7.8-3.3,12.3-3.3h.2Z"/>
        <path class="cls-4" d="M920.3,317.4c1.9-3.3,4.6-6,8.3-8.1,3.7-2.2,8.1-3.3,13-3.3s9.6,1.2,13.7,3.6c4.2,2.4,7.4,5.9,9.8,10.3,2.4,4.4,3.5,9.5,3.5,15.3s-1.2,10.9-3.5,15.4c-2.4,4.5-5.6,8-9.8,10.5-4.1,2.5-8.7,3.7-13.7,3.7s-9.2-1.1-12.9-3.2c-3.7-2.2-6.5-5-8.4-8.2v37.5h-9.5v-84h9.5v10.5h0ZM959,335.2c0-4.3-.9-8-2.6-11.2-1.7-3.2-4.1-5.6-7.1-7.3-2.9-1.7-6.1-2.5-9.7-2.5s-6.7.9-9.7,2.6c-2.9,1.7-5.3,4.1-7.1,7.4-1.7,3.2-2.6,6.9-2.6,11.1s.9,8.1,2.6,11.3c1.8,3.2,4.2,5.6,7.1,7.4,3,1.7,6.2,2.5,9.7,2.5s6.8-.8,9.7-2.5c3-1.7,5.3-4.2,7.1-7.4,1.7-3.3,2.6-7.1,2.6-11.4Z"/>
        <path class="cls-4" d="M990.6,286.9v77h-9.5v-77h9.5Z"/>
        <path class="cls-4" d="M1011.6,297.7c-1.8,0-3.3-.6-4.6-1.9s-1.9-2.8-1.9-4.6.6-3.3,1.9-4.6c1.2-1.2,2.8-1.9,4.6-1.9s3.2.6,4.4,1.9c1.2,1.2,1.9,2.8,1.9,4.6s-.6,3.3-1.9,4.6c-1.2,1.2-2.6,1.9-4.4,1.9ZM1016.2,306.9v57h-9.5v-57h9.5Z"/>
        <path class="cls-4" d="M1028.8,335.3c0-5.9,1.2-11,3.5-15.4,2.4-4.4,5.6-7.9,9.8-10.3,4.2-2.4,9-3.6,14.5-3.6s12.8,1.7,17.3,5.1c4.6,3.4,7.6,8.1,9.1,14.1h-10.2c-1-3.5-2.9-6.2-5.7-8.2-2.8-2-6.2-3-10.4-3s-9.8,1.9-13.1,5.6c-3.3,3.7-5,8.9-5,15.7s1.7,12.2,5,15.9c3.3,3.7,7.7,5.6,13.1,5.6s7.6-1,10.4-2.9,4.7-4.7,5.7-8.3h10.2c-1.5,5.8-4.6,10.5-9.2,14s-10.3,5.2-17.2,5.2-10.2-1.2-14.5-3.6c-4.2-2.4-7.4-5.9-9.8-10.3s-3.5-9.6-3.5-15.6h0Z"/>
        <path class="cls-4" d="M1100.4,297.7c-1.8,0-3.3-.6-4.6-1.9-1.2-1.2-1.9-2.8-1.9-4.6s.6-3.3,1.9-4.6c1.2-1.2,2.8-1.9,4.6-1.9s3.2.6,4.4,1.9c1.2,1.2,1.9,2.8,1.9,4.6s-.6,3.3-1.9,4.6c-1.2,1.2-2.6,1.9-4.4,1.9ZM1105,306.9v57h-9.5v-57h9.5Z"/>
        <path class="cls-4" d="M1132.6,314.7v33.6c0,2.8.6,4.7,1.8,5.9,1.2,1.1,3.2,1.7,6.1,1.7h7v8h-8.5c-5.3,0-9.2-1.2-11.9-3.6-2.6-2.4-3.9-6.4-3.9-12v-33.6h-7.4v-7.8h7.4v-14.4h9.5v14.4h14.9v7.8h-15Z"/>
        <path class="cls-4" d="M1208.1,306.9l-34.3,83.8h-9.8l11.2-27.5-23-56.4h10.5l17.9,46.2,17.7-46.2h9.8Z"/>
        <path class="cls-4" d="M1250.2,297.7c-1.8,0-3.3-.6-4.6-1.9-1.2-1.2-1.9-2.8-1.9-4.6s.6-3.3,1.9-4.6c1.2-1.2,2.8-1.9,4.6-1.9s3.2.6,4.4,1.9c1.2,1.2,1.9,2.8,1.9,4.6s-.6,3.3-1.9,4.6c-1.2,1.2-2.6,1.9-4.4,1.9ZM1254.8,306.9v57h-9.5v-57h9.5Z"/>
        <path class="cls-4" d="M1298.7,305.9c6.9,0,12.5,2.1,16.8,6.3,4.3,4.2,6.4,10.2,6.4,18.1v33.6h-9.4v-32.2c0-5.7-1.4-10-4.3-13-2.8-3.1-6.7-4.6-11.6-4.6s-9,1.6-12,4.7c-2.9,3.1-4.4,7.7-4.4,13.6v31.5h-9.5v-57h9.5v8.1c1.9-2.9,4.4-5.2,7.6-6.8,3.3-1.6,6.8-2.4,10.7-2.4h.2Z"/>
        <path class="cls-4" d="M1370,297.7c-1.8,0-3.3-.6-4.6-1.9-1.2-1.2-1.9-2.8-1.9-4.6s.6-3.3,1.9-4.6c1.2-1.2,2.8-1.9,4.6-1.9s3.2.6,4.4,1.9c1.2,1.2,1.9,2.8,1.9,4.6s-.6,3.3-1.9,4.6c-1.2,1.2-2.6,1.9-4.4,1.9ZM1374.6,306.9v57h-9.5v-57h9.5Z"/>
        <path class="cls-4" d="M1418.5,305.9c6.9,0,12.6,2.1,16.8,6.3,4.3,4.2,6.5,10.2,6.5,18.1v33.6h-9.4v-32.2c0-5.7-1.4-10-4.3-13-2.8-3.1-6.7-4.6-11.7-4.6s-9,1.6-12,4.7c-2.9,3.1-4.4,7.7-4.4,13.6v31.5h-9.5v-57h9.5v8.1c1.9-2.9,4.4-5.2,7.6-6.8,3.3-1.6,6.8-2.4,10.7-2.4h.2Z"/>
        <path class="cls-4" d="M1468.8,314.7v33.6c0,2.8.6,4.7,1.8,5.9,1.2,1.1,3.2,1.7,6.1,1.7h7v8h-8.5c-5.3,0-9.2-1.2-11.8-3.6-2.6-2.4-4-6.4-4-12v-33.6h-7.4v-7.8h7.4v-14.4h9.5v14.4h14.9v7.8h-15Z"/>
        <path class="cls-4" d="M1547.1,333.2c0,1.8,0,3.7-.3,5.7h-45.6c.3,5.6,2.3,10,5.7,13.2,3.5,3.1,7.8,4.7,12.8,4.7s7.5-.9,10.2-2.8c2.8-1.9,4.7-4.5,5.8-7.7h10.2c-1.5,5.5-4.6,9.9-9.2,13.4-4.6,3.4-10.3,5.1-17.1,5.1s-10.3-1.2-14.6-3.6c-4.2-2.4-7.5-5.9-10-10.3-2.4-4.5-3.6-9.7-3.6-15.6s1.2-11.1,3.5-15.5,5.7-7.8,9.9-10.2c4.3-2.4,9.2-3.6,14.8-3.6s10.2,1.2,14.3,3.5,7.3,5.6,9.6,9.8c2.3,4.1,3.4,8.7,3.4,13.9h.2ZM1537.3,331.2c0-3.6-.8-6.7-2.4-9.3-1.6-2.6-3.8-4.6-6.6-5.9-2.7-1.4-5.7-2.1-9-2.1-4.8,0-8.9,1.5-12.3,4.6-3.3,3-5.2,7.3-5.7,12.7h36Z"/>
        <path class="cls-4" d="M1583.1,306c4.9,0,9.2,1.1,12.9,3.2,3.7,2.1,6.5,4.9,8.3,8.1v-10.4h9.6v58.2c0,5.2-1.1,9.8-3.3,13.8-2.2,4.1-5.4,7.3-9.6,9.6-4.1,2.3-8.9,3.4-14.3,3.4s-13.7-1.8-18.7-5.3-7.9-8.4-8.8-14.5h9.4c1,3.5,3.2,6.2,6.5,8.3,3.3,2.1,7.2,3.2,11.8,3.2s9.4-1.6,12.7-4.9c3.3-3.3,5-7.8,5-13.7v-12c-1.9,3.3-4.6,6.1-8.3,8.3-3.7,2.2-8,3.3-12.9,3.3s-9.7-1.2-13.8-3.7c-4.1-2.5-7.3-6-9.7-10.5-2.3-4.5-3.5-9.6-3.5-15.4s1.2-10.9,3.5-15.3c2.4-4.4,5.6-7.9,9.7-10.3,4.2-2.4,8.8-3.6,13.8-3.6l-.3.2ZM1604.3,335.3c0-4.3-.9-8-2.6-11.2s-4.1-5.6-7.1-7.3c-2.9-1.7-6.1-2.6-9.7-2.6s-6.8.8-9.7,2.5c-2.9,1.7-5.2,4.1-7,7.3s-2.6,6.9-2.6,11.2.9,8.2,2.6,11.4c1.7,3.2,4.1,5.6,7,7.4,2.9,1.7,6.1,2.5,9.7,2.5s6.8-.8,9.7-2.5c3-1.7,5.3-4.2,7.1-7.4,1.7-3.3,2.6-7,2.6-11.3Z"/>
        <path class="cls-4" d="M1639.3,316.2c1.7-3.3,4-5.8,7.1-7.6,3.1-1.8,6.9-2.7,11.3-2.7v9.8h-2.5c-10.6,0-15.9,5.8-15.9,17.3v31h-9.5v-57h9.5v9.3h0Z"/>
        <path class="cls-4" d="M1665.1,335.2c0-5.8,1.2-10.9,3.5-15.3,2.4-4.4,5.6-7.9,9.7-10.3,4.2-2.4,8.8-3.6,13.8-3.6s9.3,1.1,13,3.2,6.4,4.9,8.2,8.1v-10.4h9.6v57h-9.6v-10.6c-1.9,3.3-4.7,6.1-8.4,8.3-3.7,2.1-8,3.2-12.9,3.2s-9.6-1.2-13.7-3.7-7.3-6-9.7-10.5c-2.4-4.5-3.5-9.6-3.5-15.4h0ZM1713.4,335.3c0-4.3-.9-8-2.6-11.2s-4.1-5.6-7.1-7.3c-2.9-1.7-6.1-2.6-9.7-2.6s-6.8.8-9.7,2.5c-2.9,1.7-5.2,4.1-7,7.3s-2.6,6.9-2.6,11.2.9,8.2,2.6,11.4c1.7,3.2,4,5.6,7,7.4,2.9,1.7,6.1,2.5,9.7,2.5s6.8-.8,9.7-2.5c3-1.7,5.3-4.2,7.1-7.4,1.7-3.3,2.6-7,2.6-11.3Z"/>
        <path class="cls-4" d="M1750.5,314.7v33.6c0,2.8.6,4.7,1.8,5.9,1.2,1.1,3.2,1.7,6.1,1.7h7v8h-8.5c-5.3,0-9.2-1.2-11.9-3.6-2.6-2.4-3.9-6.4-3.9-12v-33.6h-7.4v-7.8h7.4v-14.4h9.5v14.4h14.9v7.8h-15Z"/>
        <path class="cls-4" d="M1781.7,297.7c-1.8,0-3.3-.6-4.6-1.9-1.2-1.2-1.9-2.8-1.9-4.6s.6-3.3,1.9-4.6c1.2-1.2,2.8-1.9,4.6-1.9s3.2.6,4.4,1.9c1.2,1.2,1.9,2.8,1.9,4.6s-.6,3.3-1.9,4.6c-1.2,1.2-2.6,1.9-4.4,1.9ZM1786.3,306.9v57h-9.5v-57h9.5Z"/>
        <path class="cls-4" d="M1827.3,364.8c-5.3,0-10.2-1.2-14.6-3.6-4.3-2.4-7.7-5.9-10.2-10.3-2.4-4.5-3.6-9.7-3.6-15.6s1.2-11,3.7-15.4c2.6-4.5,6-7.9,10.4-10.3s9.2-3.6,14.7-3.6,10.3,1.2,14.7,3.6c4.4,2.4,7.8,5.8,10.3,10.2,2.6,4.4,3.8,9.6,3.8,15.5s-1.3,11.1-3.9,15.6c-2.6,4.4-6.1,7.9-10.5,10.3s-9.4,3.6-14.8,3.6h0ZM1827.3,356.5c3.4,0,6.6-.8,9.6-2.4s5.4-4,7.2-7.2c1.9-3.2,2.8-7.1,2.8-11.6s-.9-8.5-2.7-11.6c-1.8-3.2-4.2-5.5-7.1-7.1s-6.1-2.4-9.5-2.4-6.7.8-9.6,2.4c-2.8,1.5-5.1,3.9-6.9,7.1-1.7,3.2-2.6,7.1-2.6,11.6s.8,8.6,2.5,11.8c1.7,3.2,4,5.6,6.9,7.2,2.8,1.5,6,2.3,9.4,2.3h0Z"/>
        <path class="cls-4" d="M1896.7,305.9c6.9,0,12.5,2.1,16.8,6.3,4.3,4.2,6.4,10.2,6.4,18.1v33.6h-9.4v-32.2c0-5.7-1.4-10-4.3-13-2.8-3.1-6.7-4.6-11.7-4.6s-9,1.6-12,4.7c-2.9,3.1-4.4,7.7-4.4,13.6v31.5h-9.5v-57h9.5v8.1c1.9-2.9,4.4-5.2,7.6-6.8,3.2-1.6,6.8-2.4,10.7-2.4h.3Z"/>
        <path class="cls-3" d="M71.4,280.1l222.6-203.4h26.9l272.5,222.6-53.7,69.1-468.2-26.9v-61.4h0Z"/>
        <path class="cls-2" d="M204.1,95C241.9,16.6,321.7-12,388.2,4.5c66.2,16.5,125.6,80.8,124.1,166.3,4.3,1.1,8.6,2,12.9,2.9h0c9.2,2,18.3,3.9,27,7.2,48.5,18.4,78.4,68.6,73.4,120.6-5.5,57.6-45.3,100.3-98.7,107.8-6,.8-12.1,1.3-18.1,1.3H127.8C53.1,410.6-4.8,348.9.3,272.8c3.5-52.8,30.4-90.5,78.2-112.1h.2s.2,0,.2-.1h0c3.2-1.4,5.8-2.6,6.8-7.2,11.5-52.4,66.3-82.3,115.8-59.2.4.2.9.4,1.6.6h0c.3,0,.6.2.9.3h0ZM247.1,331.1H102.7v-43.3h105.2c9.2,17.7,22.8,32.6,39.3,43.3h0ZM396.5,272c4.9-11.7,7.6-24.6,7.6-38.2s0-.4,0-.6h0v-2.5h0v-2.4h0v-2.2h0v-.2h0c0-.6,0-1.3-.2-1.9h0v-.4c0-.7-.2-1.3-.2-2h0v-.3c0-.8-.2-1.5-.3-2.3v-.3h0c0-.6-.1-1.1-.2-1.6v-.6c0-.4-.1-.7-.2-1.1h0c0-.3-.1-.6-.2-.9v-.4h0c0-.3-.1-.7-.2-1v-.8c0-.2,0-.4-.1-.6-.1-.7-.3-1.4-.5-2h0c-.2-.8-.4-1.6-.6-2.3,0-.3-.2-.7-.3-1v-.3c-.1-.2-.2-.5-.3-.7-.1-.5-.3-.9-.4-1.4h0c0-.2,0-.3-.2-.5-.1-.4-.3-.8-.4-1.2l-.3-.8c0-.1,0-.2-.1-.4,0-.1,0-.2-.1-.4,0-.2-.2-.5-.3-.7-.2-.6-.5-1.3-.7-1.9-.2-.4-.3-.9-.5-1.3,0-.2-.2-.4-.3-.7-.3-.7-.6-1.5-.9-2.2-.3-.6-.6-1.3-.9-1.9l-.2-.4c-.1-.3-.3-.6-.4-.8-.1-.3-.3-.6-.4-.8h0c-.3-.7-.6-1.3-.9-1.9,0-.2-.2-.3-.2-.5h0c-.2-.4-.5-.9-.7-1.3-.5-.9-1-1.8-1.6-2.7h0c-.3-.5-.6-1-1-1.5h0s0-.2-.2-.3c-.3-.4-.6-.9-.8-1.3h0s-.1-.2-.2-.2c0,0-.1-.2-.2-.2h0c-.4-.5-.7-1.1-1.1-1.6-.1-.1-.2-.3-.3-.4-.1-.1-.2-.3-.3-.4h0c-.2-.3-.5-.7-.7-1-.1-.2-.3-.4-.5-.6-.2-.3-.4-.5-.6-.8v-.2c-.2,0-.2-.1-.3-.2-.1-.1-.2-.3-.3-.4-.3-.4-.7-.9-1-1.3l-.7-.9h0l-.2-.2c-.3-.4-.6-.8-1-1.2-.4-.5-.9-1-1.3-1.5h0c-.5-.6-1.1-1.2-1.6-1.8h-.1v-.2h0c-.5-.6-1.1-1.1-1.6-1.7-.6-.6-1.2-1.2-1.8-1.8-.4-.4-.8-.8-1.2-1.2h0c-.2-.2-.4-.4-.6-.5-.3-.3-.7-.7-1.1-1-.2-.2-.5-.4-.7-.6s-.2-.2-.4-.3c-.4-.3-.7-.7-1.1-1-1-.9-2.1-1.7-3.2-2.5-.3-.2-.6-.5-.9-.7h0c-.2-.1-.4-.3-.5-.4-.5-.3-.9-.7-1.4-1l-1.4-1c-.2-.1-.3-.2-.5-.3-.3-.2-.5-.4-.8-.5h0c-.3-.2-.6-.4-.8-.6-.5-.3-.9-.6-1.4-.9h0c-.4-.3-.8-.5-1.3-.8-.2-.1-.4-.2-.5-.3-.5-.3-1-.6-1.6-.9h0s-.2-.1-.3-.2c-.1,0-.2-.1-.4-.2h0c-.2-.1-.4-.3-.7-.4-.1,0-.3-.1-.4-.2,0,0-.1,0-.2-.1,0,0-.1,0-.2-.1l-1.3-.7h0c-1.2-.6-2.4-1.2-3.5-1.7h-.2s-.2,0-.2-.1l-1.8-.8h0l-2-.8-1.7-.7h-.2l-1.2-.4v48.7c.4.3.9.7,1.3,1,.3.2.6.5.9.7.1.1.3.2.4.3h.1c.4.4.7.8,1.1,1.1l.3.3c.4.4.8.8,1.2,1.1h0c.4.4.8.9,1.3,1.3h0c.4.4.8.9,1.2,1.3.6.8,1.3,1.5,1.9,2.3h.1c.1.3.2.4.4.6h0c.2.3.4.5.6.8,0,0,.1.2.2.2h0c.2.4.4.7.6.9,0,0,.1.2.2.2,0,0,.1.2.2.3.1.2.3.5.5.7s.3.5.5.7h0c.2.4.5.8.7,1.2,0,.1.2.3.2.4h0c.2.4.4.7.6,1.1.2.4.4.8.6,1.2.3.7.7,1.3.9,2h0c0,.1.1.3.2.4,0,.1.1.3.2.4h0v.2c.1.3.2.6.3.8.1.4.3.7.4,1.1.5,1.3.9,2.6,1.3,3.9h0v.4c0,.1,0,.3.1.4.2.6.3,1.2.5,1.8v.3c.2.5.3,1,.4,1.5v.8c0,.2.1.5.1.7h0c0,.4,0,.7.1,1,0,.3,0,.5.1.8h0c0,.4,0,.7.1.9v1.2c.2.3.2.7.2,1.1v2.7h0v2c0,14.9-5.9,28.3-15.3,38.2h50.3-.3ZM325.5,109.2v77.3c0,9.8-7.8,17.8-17.5,17.8s-17.5-8-17.5-17.8v-77.3c0-9.8,7.8-17.8,17.5-17.8s9.2,2,12.4,5.2c3.2,3.2,5.1,7.7,5.1,12.6ZM496.8,264l76,44.1-74.8,46.1-.3-23.2h-199c-29.5-2.9-55.1-19.4-70.7-43.3-10.1-15.5-15.9-34-15.9-53.9h0v-7.2h0v-.7h0c0-.7,0-1.3.2-1.9h0v-.4c0-.7.2-1.3.2-2h0v-.2h0c0-.9.2-1.6.3-2.4v-.3h0v-.2c0-.5.1-1,.2-1.5v-.6h0c.1-.7.2-1.3.4-2v-.4h0c0-.3.1-.6.2-.9,0-.2,0-.3.1-.5v-.4c0-.2,0-.4.1-.6h0c.1-.7.3-1.4.5-2h0c.2-.8.4-1.6.6-2.3,0-.1,0-.2.1-.4.2-.6.3-1.1.5-1.7,0-.2.1-.4.2-.6,0-.2.1-.4.2-.6,0-.2.1-.3.2-.5,0-.2.1-.3.2-.5,0-.1,0-.2.1-.3.1-.4.3-.8.4-1.3,0-.1,0-.2.1-.4,0-.1,0-.2.1-.4,0-.2.2-.5.3-.7h0c.3-.8.6-1.5.8-2.2h0c.3-.7.6-1.5.9-2.2h0c.2-.5.4-1,.7-1.5,0-.2.1-.3.2-.5.2-.5.4-1,.7-1.5h0v-.3c.3-.6.6-1.2.9-1.8,0,0,0-.1.1-.2.1-.3.3-.5.4-.8.2-.4.4-.8.6-1.2,0,0,0-.2.1-.2l.9-1.5c.5-.9,1-1.8,1.6-2.7.3-.5.6-1,1-1.5,0,0,0-.1.1-.2,0,0,0-.1.1-.2.3-.4.5-.8.8-1.3,0-.1.1-.2.2-.3,0,0,.1-.2.2-.2,0-.1.2-.2.2-.4.3-.5.6-1,1-1.5.3-.4.5-.7.8-1.1.1-.2.2-.3.3-.5s.3-.4.5-.6c.2-.3.4-.5.6-.8.2-.3.4-.5.6-.8h.1c.3-.5.6-.9.9-1.2h0c.2-.3.5-.7.8-1h0c.2-.3.5-.5.7-.8h0c.2-.3.5-.5.7-.8,0-.1.2-.2.3-.3,0,0,0-.1.1-.2,0,0,0-.1.1-.2l.5-.5.5-.5c.6-.6,1.1-1.2,1.7-1.9h0c.1-.2.3-.3.5-.5l1.9-1.9h0c.5-.5.9-.9,1.4-1.3l.6-.6.6-.6h0c.6-.5,1.2-1.1,1.8-1.6h.1c.4-.4.8-.7,1.2-1.1h0c.4-.4.9-.7,1.3-1.1h.1c.4-.5.9-.8,1.4-1.2s.9-.7,1.4-1.1h0s.1,0,.2-.1h0c.2-.2.5-.3.7-.5,0,0,.2-.1.3-.2h0c.1,0,.2-.2.3-.2.4-.2.7-.5,1.1-.8.2-.1.4-.2.5-.4,0,0,.1,0,.2-.1.2-.1.4-.3.6-.4,0,0,.1,0,.2-.1.1,0,.3-.2.4-.2,0,0,.1,0,.2-.1l1.4-.9c.5-.3.9-.6,1.4-.9.7-.5,1.5-.9,2.2-1.3.5-.3,1-.6,1.5-.9h.4c.5-.2.9-.5,1.4-.7h.3c.2,0,.4-.2.6-.3.3-.1.6-.3.8-.4.3-.1.6-.3.9-.4.3-.1.6-.3.9-.4.3-.1.6-.3.8-.4,0,0,.2,0,.2-.1h.2c.8-.4,1.7-.7,2.6-1.1.2,0,.3-.1.5-.2.2,0,.3-.1.5-.2h.2c.1,0,.2,0,.3-.1.1,0,.2,0,.3-.1.5-.2.9-.4,1.4-.5v48.7c-.4.3-.9.7-1.3,1-.3.2-.6.5-.9.7-.1.1-.3.2-.4.3h-.1c-.4.4-.7.7-1.1,1.1l-.3.3c-.4.4-.8.8-1.2,1.2-.4.4-.8.9-1.3,1.3h0c-.4.4-.8.9-1.2,1.3-.6.8-1.3,1.5-1.9,2.3h-.1q0,.1-.1.2h0c-.1.2-.2.3-.4.5h0c-.3.4-.5.7-.7,1.1,0,0-.1.1-.2.2h0c-.2.3-.4.6-.6.8-.1.2-.2.3-.3.5,0,0,0,.1-.1.2-.1.2-.2.4-.3.5-.2.2-.3.5-.5.7h0c-.2.4-.5.8-.7,1.2,0,.1-.2.3-.2.4-.2.4-.4.7-.6,1.1-.2.4-.4.8-.6,1.2-.3.7-.7,1.3-.9,2h0c0,.1-.1.3-.2.4,0,.1-.1.3-.2.4v.2h0c-.1.3-.2.6-.3.8-.1.4-.3.7-.4,1.1-.5,1.3-.9,2.6-1.3,3.9,0,.1,0,.3-.1.4,0,.1,0,.3-.1.4-.1.5-.3,1-.4,1.5v.6c-.1.5-.2,1-.3,1.5,0,.2-.1.5-.1.7h0c0,.3-.1.6-.1.8h0c0,.4,0,.7-.1,1,0,.3,0,.5-.1.8h0c0,.4,0,.7-.1.9v1.2c-.2.3-.2.7-.2,1.1h0v.5h0v.8h0v3.4h0c0,27.6,20.2,50.5,46.5,53.9,2.3.3,4.6.5,7,.5h189.1l-.3-24.3.7-.8Z"/>
      </g>
    </g>
  </g>
</svg>